<?xml version="1.0" standalone="no"?>
<!DOCTYPE svg PUBLIC "-//W3C//DTD SVG 20010904//EN"
 "http://www.w3.org/TR/2001/REC-SVG-20010904/DTD/svg10.dtd">
<svg version="1.0" xmlns="http://www.w3.org/2000/svg"
 width="160.000000pt" height="160.000000pt" viewBox="0 0 160.000000 160.000000"
 preserveAspectRatio="xMidYMid meet">
<metadata>
Created by potrace 1.11, written by Peter Selinger 2001-2013
</metadata>
<g transform="translate(0.000000,160.000000) scale(0.100000,-0.100000)"
fill="#000000" stroke="none">
<path d="M938 1534 c-2 -1 -30 -5 -63 -8 -33 -3 -69 -8 -80 -10 -11 -3 -28 -5
-37 -5 -29 -1 -20 -15 20 -32 29 -12 40 -24 49 -52 10 -35 9 -39 -48 -125 -38
-57 -74 -99 -101 -117 -83 -55 -184 -167 -228 -254 -35 -70 -126 -337 -136
-400 l-7 -42 29 13 c16 7 39 19 52 26 32 20 36 10 13 -29 -11 -19 -28 -47 -37
-64 -9 -16 -61 -96 -116 -177 -54 -81 -98 -152 -98 -158 0 -38 283 -48 322
-11 7 6 37 107 53 176 19 80 125 379 137 386 8 4 37 11 64 14 222 28 417 124
465 229 21 47 24 122 7 163 -7 15 -25 47 -40 70 -15 23 -28 45 -28 50 0 4 20
41 45 83 l46 75 92 2 c51 1 103 6 117 11 l25 10 -28 11 c-15 6 -42 13 -60 16
-98 17 -96 16 -108 53 -16 50 -46 76 -102 88 -22 6 -215 13 -219 8z"/>
</g>
</svg>
